<svg width="64" height="64" xmlns="http://www.w3.org/2000/svg">
 <g>
  <title>background</title>
  <rect x="-1" y="-1" width="6.213976" height="6.213976" id="canvas_background" fill="none"/>
 </g>

 <g>
  <title>Layer 1</title>
  <circle cx="31.934158" cy="32" fill="#fed948" r="32" id="svg_2"/>
  <path d="m57.73943,24.02389c-0.37268,-1.1433 -1.36209,-1.97762 -2.54987,-2.15194l-13.61734,-1.97763l-6.09156,-12.3382c-0.53378,-1.08078 -1.63019,-1.76363 -2.83359,-1.76363s-2.29981,0.68285 -2.83359,1.76363l-6.08795,12.3382l-13.61975,1.97763c-1.19139,0.17432 -2.1796,1.00744 -2.54988,2.15194c-0.37268,1.14329 -0.06371,2.39839 0.79947,3.23873l9.85445,9.6056l-2.32506,13.56445c-0.20197,1.18537 0.28492,2.38276 1.25751,3.08966c0.547,0.40153 1.19739,0.6035 1.85499,0.6035c0.50253,0 1.00745,-0.12022 1.4691,-0.36306l12.18071,-6.40413l12.18071,6.40413c0.46165,0.24284 0.96657,0.36306 1.46909,0.36306c0.654,0 1.308,-0.20197 1.85741,-0.6035c0.97258,-0.7081 1.45947,-1.90549 1.2575,-3.08966l-2.32626,-13.56566l9.85445,-9.60559c0.85958,-0.83673 1.16975,-2.09424 0.79947,-3.23753l-0.00001,0z" fill="#000000" id="svg_8" stroke="null"/>
  <path d="m51.27823,26.01328c-0.28101,-0.86205 -1.02703,-1.49114 -1.92263,-1.62258l-10.26758,-1.49114l-4.59308,-9.3031c-0.40247,-0.81492 -1.22917,-1.32979 -2.13655,-1.32979s-1.73407,0.51487 -2.13655,1.32979l-4.59036,9.3031l-10.26939,1.49114c-0.89831,0.13144 -1.64343,0.75962 -1.92262,1.62258c-0.28101,0.86205 -0.04805,1.80841 0.6028,2.44203l7.43033,7.24269l-1.75311,10.2277c-0.15229,0.89378 0.21483,1.79662 0.94816,2.32962c0.41245,0.30277 0.90285,0.45505 1.39869,0.45505c0.3789,0 0.75962,-0.09064 1.1077,-0.27375l9.18435,-4.82876l9.18435,4.82876c0.34809,0.18311 0.72881,0.27375 1.10771,0.27375c0.49312,0 0.98624,-0.15228 1.4005,-0.45505c0.73333,-0.53391 1.10045,-1.43675 0.94816,-2.32962l-1.75402,-10.22861l7.43033,-7.24269c0.64813,-0.6309 0.882,-1.57907 0.60281,-2.44112z" fill="#fed948" id="svg_9" stroke="null"/>
 </g>
</svg>