<svg width="64" height="64" xmlns="http://www.w3.org/2000/svg">

 <g>
  <title>background</title>
  <rect fill="none" id="canvas_background" height="402" width="582" y="-1" x="-1"/>
 </g>
 <g>
  <title>Layer 1</title>
  <circle id="svg_2" r="32" fill="#000000" cy="32" cx="31.934158"/>
  <path stroke="null" id="svg_8" fill="#ffffff" d="m57.739434,24.023889c-0.372683,-1.143294 -1.362095,-1.977623 -2.549871,-2.151942l-13.617345,-1.977623l-6.091559,-12.338202c-0.533778,-1.08078 -1.630186,-1.763631 -2.833591,-1.763631s-2.299813,0.682851 -2.833591,1.763631l-6.087952,12.338202l-13.61975,1.977623c-1.191382,0.174319 -2.179593,1.007446 -2.549871,2.151942c-0.372683,1.143294 -0.063717,2.398394 0.799465,3.238733l9.854452,9.605596l-2.325059,13.564448c-0.20197,1.185371 0.284922,2.382765 1.257504,3.08966c0.547002,0.401536 1.197393,0.603506 1.854998,0.603506c0.502521,0 1.007446,-0.12022 1.469091,-0.363065l12.180714,-6.404132l12.180714,6.404132c0.461646,0.242845 0.966571,0.363065 1.469091,0.363065c0.653998,0 1.307996,-0.20197 1.857403,-0.603506c0.972582,-0.708097 1.459474,-1.905491 1.257504,-3.08966l-2.326261,-13.565651l9.854452,-9.605596c0.859575,-0.836733 1.169743,-2.094236 0.799465,-3.237531z"/>
  <path stroke="null" id="svg_9" fill="#000000" d="m51.278226,26.01328c-0.281006,-0.862053 -1.02703,-1.491142 -1.922622,-1.622581l-10.267581,-1.491142l-4.593081,-9.303097c-0.402472,-0.814916 -1.229173,-1.329791 -2.136549,-1.329791s-1.734076,0.514875 -2.136549,1.329791l-4.590362,9.303097l-10.269394,1.491142c-0.898311,0.131438 -1.643429,0.759622 -1.922622,1.622581c-0.281006,0.862053 -0.048043,1.808407 0.602802,2.442029l7.430331,7.242692l-1.753112,10.227696c-0.152287,0.893779 0.214833,1.796623 0.948167,2.329627c0.412444,0.302761 0.902844,0.455048 1.398683,0.455048c0.378904,0 0.759622,-0.090647 1.107706,-0.273754l9.18435,-4.828763l9.18435,4.828763c0.348084,0.183107 0.728802,0.273754 1.107706,0.273754c0.493119,0 0.986239,-0.152287 1.400496,-0.455048c0.733334,-0.533911 1.100454,-1.436754 0.948167,-2.329627l-1.754019,-10.228603l7.430331,-7.242692c0.648126,-0.630903 0.881995,-1.57907 0.602802,-2.441123z"/>
 </g>
</svg>